<svg width="512" height="512" viewBox="0 0 512 512" fill="none" xmlns="http://www.w3.org/2000/svg">
<path d="M239.716 128C334.523 128 416.44 184.534 455.111 266.667C416.44 348.8 334.523 405.333 239.716 405.333C144.909 405.333 62.9918 348.8 24.3203 266.667C62.9917 184.534 144.909 128 239.716 128ZM239.716 149.333C156.552 149.333 84.6146 196.694 47.6064 266.667C84.6146 336.64 156.552 384 239.716 384C322.88 384 394.817 336.64 431.825 266.667C394.817 196.694 322.88 149.333 239.716 149.333Z" fill="url(#paint0_linear_1_2)"/>
<path d="M278.987 200.014C268.646 194.793 257.134 192 245.333 192C225.53 192 206.539 199.867 192.536 213.869C178.533 227.872 170.667 246.864 170.667 266.667C170.667 286.47 178.533 305.461 192.536 319.464C206.539 333.467 225.53 341.333 245.333 341.333C265.136 341.333 284.128 333.467 298.131 319.464C312.133 305.461 320 286.47 320 266.667C320 263.076 319.741 259.512 319.234 256L312.889 238.496C313.269 241.996 343.521 261.144 343.521 264.752C343.521 318.085 298.667 362.667 245.333 362.667C192 362.667 149.333 320 149.333 266.667C149.333 213.333 192 170.667 245.333 170.667C259.292 170.667 267.063 194.742 278.987 200.014Z" fill="url(#paint1_linear_1_2)"/>
<path d="M245.06 223.179L257.438 254.562L288.821 266.94L257.438 279.318L245.06 310.701L232.682 279.318L201.299 266.94L232.682 254.562L245.06 223.179Z" fill="url(#paint2_linear_1_2)"/>
<defs>
<linearGradient id="paint0_linear_1_2" x1="245.333" y1="128" x2="245.333" y2="405.333" gradientUnits="userSpaceOnUse">
<stop stop-color="#6D28D9"/>
<stop offset="0.45" stop-color="#7C42E8"/>
<stop offset="0.75" stop-color="#9267F1"/>
<stop offset="1" stop-color="#DDD6FE"/>
</linearGradient>
<linearGradient id="paint1_linear_1_2" x1="246.427" y1="170.667" x2="246.427" y2="362.667" gradientUnits="userSpaceOnUse">
<stop stop-color="#6D28D9"/>
<stop offset="0.45" stop-color="#8B5CF6"/>
<stop offset="0.75" stop-color="#A78BFA"/>
<stop offset="1" stop-color="#DDD6FE"/>
</linearGradient>
<linearGradient id="paint2_linear_1_2" x1="245.06" y1="223.179" x2="245.06" y2="310.701" gradientUnits="userSpaceOnUse">
<stop stop-color="#6D28D9"/>
<stop offset="0.45" stop-color="#8B5CF6"/>
<stop offset="0.75" stop-color="#A78BFA"/>
<stop offset="1" stop-color="#DDD6FE"/>
</linearGradient>
</defs>
</svg>
